<svg width="116" height="20" viewBox="0 0 116 20" fill="none" role="img" xmlns="http://www.w3.org/2000/svg">
                            <title>5 star rating</title>
                            <g transform="scale(0.625)">
                                <path d="M16 0L20.7211 9.50198L31.2169 11.0557L23.6389 18.482L25.4045 28.9443L16 24.032L6.59542 28.9443L8.3611 18.482L0.783081 11.0557L11.2789 9.50198L16 0Z" stroke="#AB7E55" fill="#AB7E55"></path>
                                <path d="M54 0L58.7211 9.50198L69.2169 11.0557L61.6389 18.482L63.4045 28.9443L54 24.032L44.5954 28.9443L46.3611 18.482L38.7831 11.0557L49.2789 9.50198L54 0Z" stroke="#AB7E55" fill="#AB7E55"></path>
                                <path d="M90 0L94.7211 9.50198L105.217 11.0557L97.6389 18.482L99.4045 28.9443L90 24.032L80.5954 28.9443L82.3611 18.482L74.7831 11.0557L85.2789 9.50198L90 0Z" stroke="#AB7E55" fill="#AB7E55"></path>
                                <path d="M128 0L132.721 9.50198L143.217 11.0557L135.639 18.482L137.405 28.9443L128 24.032L118.595 28.9443L120.361 18.482L112.783 11.0557L123.279 9.50198L128 0Z" stroke="#AB7E55" fill="#AB7E55"></path>
                                <path d="M166 0L170.721 9.50198L181.217 11.0557L173.639 18.482L175.405 28.9443L166 24.032L156.595 28.9443L158.361 18.482L150.783 11.0557L161.279 9.50198L166 0Z" stroke="#AB7E55" fill="#AB7E55"></path>
                            </g>
                        </svg>